<?xml version="1.0" standalone="no"?>
<!DOCTYPE svg PUBLIC "-//W3C//DTD SVG 20010904//EN"
 "http://www.w3.org/TR/2001/REC-SVG-20010904/DTD/svg10.dtd">
<svg version="1.0" xmlns="http://www.w3.org/2000/svg"
 width="3000.000000pt" height="3000.000000pt" viewBox="0 0 3000.000000 3000.000000"
 preserveAspectRatio="xMidYMid meet">

<g transform="translate(0.000000,3000.000000) scale(0.100000,-0.100000)"
fill="#000000" stroke="none">
<path d="M14840 25387 c-3 -3 -167 -11 -365 -16 -198 -6 -409 -18 -470 -26
-60 -8 -202 -19 -315 -25 -145 -8 -236 -18 -310 -35 -58 -12 -152 -26 -209
-29 -111 -7 -151 -14 -151 -26 0 -26 274 -37 497 -20 187 14 226 10 231 -26 6
-39 -18 -44 -239 -54 -212 -10 -309 -20 -396 -42 -28 -7 -92 -9 -171 -5 -115
5 -128 7 -144 27 -10 12 -18 32 -18 44 0 13 -11 33 -25 46 -17 16 -25 34 -25
56 0 50 -18 58 -113 49 -45 -3 -102 -15 -127 -25 -25 -10 -71 -21 -103 -24
-32 -4 -77 -16 -100 -28 -24 -12 -76 -25 -122 -30 -45 -5 -102 -19 -132 -33
-29 -13 -78 -27 -110 -30 -32 -4 -78 -16 -103 -27 -25 -10 -88 -25 -140 -33
-52 -8 -118 -23 -146 -34 -28 -11 -74 -23 -102 -27 -44 -6 -57 -3 -96 20 l-46
27 -47 -20 c-27 -11 -66 -22 -87 -25 -21 -3 -49 -15 -61 -26 -13 -12 -46 -24
-80 -30 -35 -6 -67 -18 -81 -31 -12 -11 -42 -25 -66 -30 -23 -6 -52 -19 -64
-30 -11 -10 -40 -23 -65 -27 -24 -5 -62 -21 -83 -35 -21 -15 -49 -27 -61 -27
-12 0 -40 -12 -61 -27 -21 -14 -59 -30 -83 -35 -25 -4 -54 -17 -65 -27 -12
-11 -40 -24 -64 -29 -24 -6 -60 -22 -81 -36 -20 -14 -49 -26 -63 -26 -14 0
-45 -13 -69 -30 -24 -16 -51 -30 -60 -30 -9 0 -36 -13 -60 -30 -24 -16 -54
-30 -65 -30 -12 0 -38 -13 -59 -30 -21 -16 -46 -30 -56 -30 -9 0 -31 -11 -47
-25 -17 -14 -43 -28 -60 -31 -16 -3 -42 -17 -57 -30 -15 -13 -43 -28 -62 -33
-18 -5 -47 -21 -64 -35 -17 -14 -39 -26 -49 -26 -10 0 -31 -11 -47 -24 -15
-13 -48 -33 -73 -45 -81 -40 -126 -66 -155 -88 -15 -13 -33 -23 -40 -23 -7 0
-25 -10 -41 -22 -31 -26 -79 -56 -139 -89 -22 -12 -52 -31 -66 -43 -15 -11
-39 -29 -55 -38 -34 -21 -73 -47 -214 -143 -57 -38 -131 -88 -165 -110 -35
-23 -105 -74 -156 -115 -51 -41 -121 -95 -154 -120 -194 -144 -454 -359 -625
-519 -63 -59 -177 -165 -252 -235 -120 -111 -314 -310 -457 -469 -25 -28 -58
-63 -72 -77 -42 -42 -280 -322 -339 -400 -30 -39 -80 -103 -110 -140 -92 -113
-276 -356 -325 -430 -11 -16 -60 -89 -110 -160 -49 -72 -99 -145 -109 -163
-42 -71 -86 -134 -100 -146 -8 -7 -20 -29 -27 -49 -7 -20 -21 -48 -31 -62 -33
-42 -88 -134 -88 -146 0 -6 -13 -28 -30 -49 -16 -21 -30 -44 -30 -51 0 -7 -11
-26 -25 -42 -14 -17 -31 -45 -37 -64 -6 -18 -22 -46 -35 -61 -12 -16 -23 -34
-23 -40 0 -7 -14 -30 -30 -51 -17 -22 -30 -47 -30 -57 0 -10 -11 -30 -24 -46
-13 -15 -28 -45 -34 -66 -6 -20 -22 -51 -36 -68 -14 -17 -26 -40 -26 -52 0
-12 -14 -42 -30 -67 -16 -25 -30 -52 -30 -61 0 -9 -11 -32 -25 -52 -13 -20
-29 -56 -36 -79 -6 -24 -20 -55 -31 -71 -11 -15 -24 -44 -30 -64 -6 -21 -21
-53 -34 -72 -13 -20 -24 -47 -24 -62 0 -14 -11 -43 -25 -64 -14 -20 -29 -51
-32 -69 -3 -17 -16 -49 -28 -71 -13 -22 -26 -58 -30 -80 -4 -22 -18 -57 -32
-78 -13 -22 -27 -55 -30 -75 -3 -21 -16 -55 -29 -77 -12 -22 -26 -58 -29 -80
-4 -22 -18 -65 -30 -95 -13 -30 -30 -82 -38 -115 -9 -33 -25 -89 -37 -125 -54
-169 -114 -375 -136 -475 -7 -33 -24 -103 -38 -155 -13 -52 -28 -115 -31 -140
-4 -25 -17 -88 -30 -140 -13 -52 -31 -136 -39 -185 -9 -50 -22 -119 -30 -155
-8 -36 -17 -94 -21 -130 -3 -36 -17 -128 -30 -205 -13 -77 -29 -187 -35 -245
-6 -58 -17 -144 -25 -193 -8 -48 -19 -174 -25 -280 -6 -105 -17 -303 -25 -439
-17 -280 -19 -675 -5 -883 5 -77 14 -246 20 -375 6 -129 18 -291 26 -360 34
-295 31 -280 95 -695 21 -138 60 -355 85 -470 9 -38 29 -131 45 -205 15 -74
42 -184 59 -245 17 -60 42 -148 54 -195 13 -47 33 -114 44 -150 12 -36 29 -87
38 -115 9 -27 27 -88 40 -135 31 -110 77 -243 103 -300 11 -25 21 -54 21 -65
0 -11 13 -47 30 -80 16 -33 30 -69 30 -81 0 -12 11 -42 25 -67 13 -25 29 -66
35 -89 6 -24 19 -54 29 -68 10 -14 26 -48 35 -77 9 -28 23 -56 30 -63 8 -6 19
-31 25 -56 6 -25 22 -62 35 -82 13 -20 27 -53 30 -73 4 -20 15 -44 26 -54 10
-9 22 -31 25 -49 4 -17 20 -52 36 -77 16 -25 29 -52 29 -60 0 -8 14 -34 30
-59 16 -25 30 -52 30 -60 0 -8 14 -35 30 -60 16 -25 30 -53 30 -62 0 -9 11
-29 24 -45 13 -15 28 -45 35 -65 7 -20 19 -42 28 -49 8 -7 26 -36 40 -64 13
-27 36 -71 51 -96 76 -131 97 -167 115 -204 11 -22 30 -52 41 -67 12 -14 35
-49 51 -78 17 -29 45 -72 62 -96 18 -24 33 -47 33 -50 0 -4 21 -38 48 -76 26
-38 58 -87 72 -108 41 -61 97 -142 129 -185 17 -22 40 -56 51 -75 22 -37 45
-68 122 -168 25 -33 52 -70 59 -83 7 -13 46 -65 88 -115 42 -51 92 -113 111
-138 44 -59 270 -331 308 -371 16 -16 57 -64 92 -105 167 -197 661 -680 882
-862 42 -35 108 -90 146 -123 104 -90 377 -305 388 -305 5 0 38 -23 134 -95
127 -95 192 -142 217 -157 15 -10 47 -30 69 -45 23 -16 61 -41 85 -57 24 -16
46 -32 49 -35 9 -12 130 -91 139 -91 4 0 24 -12 44 -28 19 -15 48 -35 64 -44
15 -10 48 -31 73 -48 25 -17 58 -38 73 -48 16 -9 45 -29 64 -44 20 -16 41 -28
48 -28 7 0 29 -13 50 -30 21 -16 44 -30 51 -30 7 0 25 -10 41 -23 26 -22 43
-32 156 -89 23 -12 51 -29 62 -38 11 -10 38 -23 60 -30 22 -7 53 -23 68 -36
16 -13 34 -24 41 -24 7 0 29 -11 48 -24 20 -13 51 -29 70 -35 19 -6 50 -23 68
-36 19 -14 42 -25 51 -25 10 0 30 -11 46 -24 16 -13 47 -29 69 -35 23 -6 52
-19 65 -30 13 -10 41 -24 61 -30 20 -7 47 -20 60 -30 13 -10 48 -26 79 -35 31
-8 62 -22 68 -30 6 -7 32 -19 57 -25 25 -7 58 -21 72 -31 15 -11 51 -24 80
-30 30 -5 66 -19 82 -30 16 -11 43 -23 62 -27 18 -3 57 -19 87 -35 30 -15 66
-28 80 -28 14 0 53 -14 86 -30 33 -16 69 -30 81 -30 12 0 41 -11 66 -24 24
-13 68 -29 97 -35 28 -6 68 -19 89 -30 20 -10 55 -22 77 -26 22 -4 65 -17 95
-30 30 -12 75 -26 100 -30 25 -4 70 -17 100 -30 30 -12 78 -25 107 -29 29 -4
86 -18 128 -31 42 -14 89 -25 105 -25 16 0 81 -13 145 -30 64 -16 131 -30 148
-30 18 0 66 -10 107 -21 41 -12 102 -26 135 -31 33 -5 105 -18 160 -29 55 -10
134 -23 175 -29 41 -6 134 -21 205 -35 72 -13 189 -29 260 -35 72 -6 173 -15
225 -20 222 -22 946 -42 1315 -36 614 10 1131 58 1635 152 102 19 194 34 206
34 11 0 56 9 100 21 43 11 122 27 174 34 52 7 133 22 180 34 47 11 118 25 158
31 40 5 87 17 105 26 17 9 63 20 102 25 38 4 87 17 107 27 21 11 68 23 105 27
37 4 88 17 113 30 25 12 72 25 106 28 33 4 85 18 115 32 30 13 72 25 94 25 24
0 64 12 100 30 33 17 76 30 96 30 20 0 58 12 84 26 27 14 74 30 104 36 31 5
69 19 85 31 16 11 50 24 76 28 25 4 64 19 85 33 24 16 51 26 75 26 25 0 52 10
81 30 24 16 56 30 71 30 14 0 40 11 57 26 18 15 50 28 80 33 30 5 61 18 81 34
17 15 40 27 51 27 11 0 45 14 76 30 31 17 64 30 73 30 10 0 34 14 55 30 21 17
47 30 59 30 11 0 41 14 65 30 24 17 53 30 64 30 11 0 35 13 54 30 21 19 45 30
63 30 15 0 41 11 57 23 15 13 43 29 61 35 19 6 47 23 64 37 16 14 38 25 48 25
10 0 32 12 49 26 17 14 46 30 64 35 19 5 47 20 63 34 16 14 34 25 39 25 6 0
29 13 51 28 23 15 55 35 70 44 16 10 49 31 74 48 25 16 63 39 85 51 22 12 52
31 66 43 15 11 39 29 55 38 69 42 305 203 456 311 47 34 118 85 157 112 40 28
87 61 106 75 18 14 75 54 125 90 50 36 140 106 200 155 60 50 124 100 142 113
94 65 151 111 229 184 48 44 100 88 116 98 17 10 63 51 105 91 41 41 105 103
144 139 149 142 359 367 636 685 140 161 224 266 448 562 143 189 269 368 330
472 14 23 40 61 57 84 18 23 33 47 33 53 0 6 12 27 28 47 15 20 40 57 55 84
16 26 38 63 50 82 50 78 87 138 105 171 11 19 29 44 41 54 12 11 21 27 21 36
0 9 13 34 29 56 16 21 32 50 36 64 4 14 13 31 19 39 11 14 49 83 87 161 12 25
29 54 39 65 10 11 23 38 29 61 6 22 20 49 31 59 11 10 22 33 26 51 3 19 19 50
35 70 16 20 29 45 29 54 0 9 14 34 30 55 16 21 30 48 30 60 0 12 14 39 30 60
17 21 30 49 30 63 0 14 11 38 25 52 14 15 29 46 34 74 5 26 18 57 30 70 11 12
25 43 30 69 5 26 20 64 34 85 13 20 27 53 31 72 3 19 15 44 27 56 11 11 23 39
26 60 3 21 16 55 29 74 12 19 28 55 34 80 7 25 20 57 31 71 10 14 23 48 29 75
6 27 17 55 25 64 7 8 20 44 29 80 9 36 24 75 32 88 8 12 19 47 25 78 6 30 19
76 30 102 11 26 25 72 30 102 6 30 21 89 33 130 97 311 135 464 201 795 14 72
32 157 40 190 16 68 79 449 94 570 85 660 105 1130 81 1812 -10 287 -25 502
-41 610 -5 34 -16 130 -24 215 -9 84 -29 236 -45 338 -17 102 -33 203 -36 225
-3 22 -14 78 -24 125 -10 47 -29 132 -41 190 -21 102 -50 233 -103 472 -14 64
-32 134 -40 155 -8 21 -22 73 -31 116 -9 43 -23 93 -30 111 -8 18 -21 63 -30
101 -9 39 -22 80 -30 92 -9 12 -20 46 -26 75 -6 29 -19 69 -29 88 -9 19 -23
60 -30 90 -7 30 -21 69 -31 86 -10 17 -24 55 -30 85 -6 30 -20 66 -30 80 -10
14 -23 48 -29 74 -6 26 -20 61 -32 78 -12 16 -25 49 -29 74 -5 24 -18 57 -29
73 -11 16 -23 43 -26 62 -4 18 -19 56 -34 83 -15 28 -30 65 -34 83 -3 19 -17
47 -31 64 -14 16 -25 40 -25 52 0 13 -13 40 -30 61 -16 21 -30 46 -30 57 0 22
-16 56 -36 76 -7 7 -18 28 -23 47 -5 20 -21 49 -35 66 -14 17 -26 41 -26 53 0
13 -13 40 -30 61 -16 21 -30 48 -30 60 0 12 -13 39 -30 60 -16 21 -30 46 -30
55 0 9 -12 35 -26 56 -15 21 -31 52 -37 69 -6 16 -19 41 -29 54 -10 14 -28 43
-39 65 -34 69 -54 102 -82 136 -15 17 -27 37 -27 44 0 7 -12 29 -27 49 -16 19
-36 48 -45 64 -10 15 -30 47 -45 69 -16 23 -36 53 -45 68 -10 14 -26 38 -35
52 -10 15 -29 43 -43 64 -45 67 -98 144 -129 185 -17 22 -40 56 -51 75 -11 19
-52 82 -91 140 -38 58 -77 118 -87 133 -40 65 -276 373 -367 478 -80 94 -190
216 -295 329 -54 58 -122 133 -151 167 -167 192 -513 539 -579 581 -14 9 -50
39 -80 68 -178 167 -314 285 -390 339 -30 21 -80 60 -110 85 -75 62 -119 94
-160 115 -19 10 -64 41 -100 69 -36 28 -85 65 -110 81 -54 35 -167 118 -330
240 -65 50 -161 120 -212 158 -51 37 -127 92 -168 122 -41 30 -80 55 -86 55
-6 0 -19 9 -29 20 -19 21 -118 80 -135 80 -22 0 -8 -24 43 -74 28 -28 77 -70
108 -93 31 -23 94 -76 140 -120 181 -166 357 -317 409 -348 10 -5 48 -37 85
-70 38 -33 97 -85 131 -115 35 -30 89 -76 121 -101 32 -26 154 -135 271 -243
116 -108 215 -196 220 -196 4 0 37 -28 73 -62 36 -35 145 -139 242 -231 97
-93 189 -178 204 -190 16 -11 82 -73 148 -136 131 -126 311 -293 390 -361 54
-46 62 -55 233 -237 118 -127 130 -141 216 -268 30 -44 93 -125 140 -179 129
-150 143 -196 61 -196 -33 0 -49 7 -78 33 -20 17 -53 46 -74 64 -21 18 -54 46
-73 62 -117 100 -294 242 -345 276 -33 22 -73 52 -90 66 -16 15 -46 34 -65 43
-19 9 -66 38 -105 66 -38 27 -74 50 -79 50 -5 0 -23 11 -40 24 -17 12 -47 31
-66 41 -19 9 -44 25 -55 35 -11 9 -33 20 -49 24 -16 4 -43 18 -60 30 -17 13
-47 26 -67 30 -21 4 -49 16 -63 27 -15 11 -43 25 -64 31 -20 6 -49 21 -64 33
-15 13 -41 26 -57 30 -16 3 -35 13 -42 21 -6 8 -35 21 -64 29 -29 9 -62 27
-75 40 -13 14 -29 25 -35 25 -6 0 -24 14 -40 30 -16 17 -35 30 -42 30 -11 0
-154 118 -263 217 -14 12 -74 66 -135 118 -60 53 -121 107 -135 119 -14 13
-70 61 -126 107 -56 46 -150 125 -209 174 -59 50 -153 125 -209 168 -55 43
-126 97 -156 120 -30 23 -64 49 -76 57 -36 25 -137 98 -179 129 -22 17 -56 40
-75 51 -19 11 -55 36 -80 55 -25 19 -63 44 -85 56 -22 12 -56 36 -77 53 -20
17 -68 49 -106 71 -76 44 -176 107 -226 142 -17 13 -51 32 -75 43 -23 11 -55
29 -70 41 -45 35 -116 79 -127 79 -6 0 -28 14 -49 30 -21 17 -42 30 -48 30 -6
0 -51 24 -101 54 -50 30 -107 62 -127 72 -102 53 -158 85 -163 93 -4 5 -23 15
-44 22 -20 7 -50 22 -67 34 -16 13 -47 28 -67 34 -20 7 -42 18 -48 26 -6 8
-28 19 -48 26 -20 7 -50 22 -65 35 -29 25 -71 32 -82 14 -7 -11 24 -43 76 -78
73 -49 262 -170 363 -232 59 -36 163 -101 231 -145 69 -44 143 -91 166 -105
23 -14 60 -40 83 -57 22 -18 45 -33 50 -33 4 0 23 -12 41 -27 45 -38 104 -80
142 -101 17 -9 44 -26 60 -36 15 -11 59 -40 96 -65 102 -68 106 -71 181 -133
38 -32 74 -58 81 -58 6 0 46 -28 88 -62 43 -35 109 -88 147 -118 39 -30 119
-96 178 -145 98 -83 122 -102 187 -145 23 -16 106 -88 217 -190 33 -30 67 -59
76 -64 28 -15 208 -174 331 -292 64 -61 148 -138 186 -171 39 -34 90 -84 115
-113 25 -29 57 -66 72 -83 29 -33 90 -100 209 -227 39 -41 111 -122 161 -180
99 -113 188 -213 368 -410 63 -69 135 -148 159 -175 25 -28 79 -86 120 -130
99 -105 220 -244 249 -286 38 -56 93 -129 172 -229 136 -173 213 -287 309
-454 9 -15 30 -45 46 -66 17 -21 44 -61 60 -90 17 -28 40 -66 52 -83 19 -29
125 -215 224 -396 20 -36 74 -140 121 -231 46 -91 89 -174 95 -185 48 -89 120
-253 140 -319 8 -27 21 -60 30 -72 13 -21 36 -78 83 -210 10 -28 27 -68 38
-90 11 -22 27 -64 36 -94 8 -30 34 -107 56 -170 41 -114 65 -192 114 -365 14
-49 32 -106 40 -125 8 -19 22 -73 32 -119 9 -46 22 -102 30 -123 7 -22 19 -70
25 -106 6 -37 19 -94 29 -127 11 -33 26 -105 35 -160 9 -55 22 -122 30 -150 8
-27 21 -111 29 -185 8 -74 22 -155 31 -180 11 -30 20 -108 26 -230 6 -102 19
-241 30 -310 18 -111 21 -187 26 -665 5 -559 -4 -844 -32 -1029 -9 -54 -20
-192 -25 -305 -7 -164 -13 -218 -29 -265 -12 -33 -25 -107 -30 -175 -6 -65
-19 -141 -29 -172 -11 -31 -23 -92 -27 -135 -4 -44 -16 -101 -27 -129 -11 -27
-24 -90 -30 -139 -5 -51 -18 -106 -29 -128 -11 -22 -24 -74 -29 -118 -5 -43
-16 -95 -25 -115 -8 -21 -22 -65 -31 -99 -9 -34 -24 -74 -34 -91 -10 -16 -21
-45 -25 -64 -7 -31 -39 -107 -101 -237 -13 -28 -24 -55 -24 -60 0 -5 -24 -58
-54 -119 -30 -60 -89 -186 -132 -280 -42 -93 -108 -226 -147 -295 -38 -69 -95
-172 -125 -230 -30 -58 -62 -116 -72 -130 -10 -14 -21 -36 -25 -49 -10 -31
-158 -321 -195 -381 -15 -25 -48 -83 -74 -130 -26 -47 -79 -134 -117 -195 -39
-60 -82 -132 -96 -160 -64 -127 -80 -155 -94 -172 -9 -10 -21 -33 -27 -50 -6
-18 -22 -48 -36 -66 -15 -19 -26 -38 -26 -42 0 -4 -11 -22 -23 -39 -13 -17
-27 -47 -31 -67 -3 -20 -15 -44 -26 -54 -22 -20 -27 -55 -9 -55 6 0 30 21 53
47 39 44 53 63 101 142 11 18 32 49 48 68 15 20 27 41 27 47 0 7 12 28 26 47
14 19 30 44 35 57 8 21 60 98 162 240 70 99 115 168 132 204 9 18 33 60 55 93
42 64 180 310 180 321 0 9 72 126 97 157 13 16 23 36 23 45 0 10 9 33 20 52
11 19 31 58 45 85 14 28 40 76 58 107 18 31 43 76 56 100 13 24 29 50 36 58 7
8 17 31 23 50 5 19 21 53 36 74 14 21 26 46 26 55 0 9 11 32 24 52 13 19 29
54 35 76 6 22 20 51 30 64 10 14 26 40 35 59 8 19 25 51 36 70 11 19 20 45 20
59 0 13 13 47 29 75 16 28 32 65 35 81 4 17 17 40 28 52 13 14 24 44 29 77 4
32 18 70 33 92 16 23 26 52 26 73 0 21 10 50 24 70 16 24 28 60 34 106 6 40
21 91 36 119 17 32 26 65 26 95 0 30 9 63 25 93 13 25 28 71 31 102 4 31 13
61 20 67 23 19 48 5 62 -35 16 -50 -9 -226 -43 -306 -13 -30 -31 -88 -40 -129
-9 -40 -25 -91 -35 -112 -11 -21 -20 -49 -20 -62 0 -13 -11 -44 -24 -69 -13
-25 -27 -60 -31 -79 -4 -19 -18 -54 -30 -79 -12 -25 -26 -61 -30 -80 -4 -19
-15 -49 -25 -66 -9 -17 -25 -53 -34 -80 -9 -27 -27 -71 -41 -98 -14 -27 -25
-57 -25 -66 0 -9 -11 -31 -25 -50 -13 -18 -32 -55 -40 -81 -9 -27 -21 -51 -25
-54 -5 -3 -14 -25 -20 -48 -7 -23 -22 -59 -36 -79 -13 -21 -24 -40 -24 -43 0
-6 -86 -184 -104 -215 -8 -14 -31 -61 -51 -105 -20 -44 -41 -89 -48 -100 -6
-11 -38 -72 -70 -135 -33 -63 -68 -127 -78 -142 -11 -14 -19 -29 -19 -33 0 -8
-69 -148 -129 -260 -21 -38 -129 -250 -241 -470 -111 -220 -213 -421 -226
-446 -13 -25 -30 -52 -38 -58 -8 -7 -20 -29 -27 -49 -6 -20 -19 -45 -28 -55
-17 -20 -58 -89 -91 -152 -11 -22 -34 -58 -51 -80 -16 -22 -46 -62 -65 -90
-35 -51 -55 -78 -109 -150 -138 -185 -656 -757 -909 -1004 -54 -53 -130 -127
-168 -164 -38 -37 -100 -93 -137 -125 -38 -31 -116 -97 -174 -147 -129 -110
-222 -186 -303 -246 -34 -25 -69 -52 -77 -60 -8 -8 -38 -32 -67 -54 -29 -22
-67 -51 -84 -65 -17 -14 -42 -33 -56 -43 -14 -9 -43 -30 -65 -46 -22 -17 -77
-55 -122 -86 -45 -31 -85 -60 -88 -65 -3 -4 -38 -26 -78 -48 -39 -22 -88 -53
-109 -68 -20 -16 -49 -37 -65 -46 -52 -32 -68 -43 -105 -73 -71 -57 -94 -73
-132 -89 -21 -9 -47 -27 -58 -41 -11 -14 -30 -25 -44 -25 -13 0 -34 -10 -46
-22 -12 -13 -40 -32 -62 -43 -53 -27 -58 -45 -12 -45 19 0 38 5 41 10 6 10 42
30 145 80 25 12 52 26 60 31 8 5 42 23 75 39 33 17 80 43 105 60 71 47 91 53
108 36 13 -13 11 -19 -20 -48 -19 -18 -63 -54 -99 -80 -35 -26 -90 -67 -121
-90 -31 -24 -69 -51 -85 -60 -15 -10 -69 -46 -120 -80 -164 -112 -228 -151
-328 -204 -27 -14 -57 -32 -65 -39 -22 -19 -368 -190 -414 -205 -21 -7 -54
-23 -74 -36 -19 -13 -44 -24 -54 -24 -11 0 -32 -13 -48 -28 -17 -18 -45 -32
-76 -38 -60 -11 -67 -30 -19 -50 28 -11 36 -20 33 -37 -2 -17 -13 -24 -55 -32
-28 -5 -60 -18 -70 -28 -22 -19 -68 -22 -108 -7 -22 8 -30 6 -48 -14 -12 -12
-39 -26 -60 -30 -21 -4 -91 -27 -155 -51 -64 -24 -135 -47 -157 -51 -22 -4
-64 -20 -94 -35 -30 -16 -65 -29 -78 -29 -13 0 -43 -11 -66 -24 -23 -14 -67
-28 -97 -32 -32 -3 -70 -16 -91 -30 -21 -15 -58 -27 -90 -31 -30 -3 -72 -16
-94 -28 -22 -13 -67 -26 -100 -30 -34 -4 -78 -17 -101 -31 -23 -14 -57 -24
-78 -24 -20 0 -65 -13 -99 -29 -44 -21 -85 -31 -142 -36 -44 -3 -99 -15 -123
-25 -23 -10 -76 -24 -116 -29 -94 -13 -163 -29 -188 -42 -11 -6 -61 -15 -111
-19 -51 -5 -123 -19 -160 -30 -78 -24 -162 -24 -162 0 0 8 18 21 41 30 22 8
51 22 65 31 13 9 35 19 49 23 58 17 251 119 269 142 22 28 68 63 121 93 19 10
60 43 90 73 57 55 131 106 188 128 17 7 32 16 32 20 0 9 47 30 69 30 10 0 35
14 56 30 21 17 48 30 60 30 12 0 51 14 86 31 35 17 87 41 114 54 28 13 79 37
115 53 36 17 81 34 100 37 19 4 45 16 57 27 12 11 43 24 68 29 26 5 60 20 76
33 16 14 46 28 67 32 20 3 57 19 81 35 25 16 56 29 70 29 15 0 37 8 51 18 13
9 46 28 74 42 96 47 41 82 -57 37 -28 -13 -70 -30 -92 -37 -22 -7 -51 -19 -63
-27 -13 -8 -47 -23 -75 -33 -29 -10 -95 -34 -147 -53 -52 -19 -124 -44 -160
-57 -36 -12 -90 -31 -120 -42 -30 -11 -80 -26 -110 -34 -30 -7 -77 -25 -104
-39 -27 -14 -62 -25 -78 -25 -16 0 -54 -11 -86 -24 -31 -13 -75 -27 -97 -31
-22 -4 -58 -17 -80 -30 -22 -12 -61 -25 -87 -29 -26 -4 -73 -18 -105 -30 -32
-13 -85 -27 -118 -31 -33 -4 -77 -16 -98 -26 -22 -12 -83 -25 -145 -33 -59 -7
-122 -21 -140 -30 -18 -9 -79 -23 -135 -31 -56 -7 -119 -20 -139 -29 -22 -10
-96 -20 -185 -27 -81 -6 -182 -19 -223 -30 -45 -11 -160 -25 -285 -34 -115 -8
-227 -19 -249 -24 -21 -5 -76 -13 -121 -16 -81 -7 -85 -6 -109 18 l-26 26 2
1895 c3 1788 4 1896 20 1913 15 14 45 19 160 24 94 5 168 14 216 28 41 11 118
25 173 31 55 6 126 19 157 29 31 10 82 22 112 26 30 4 90 18 132 31 42 12 98
25 125 29 26 3 86 17 133 30 47 14 119 33 160 44 178 46 266 75 485 163 55 22
141 56 190 74 121 47 330 142 384 176 25 15 49 28 54 28 5 0 68 33 140 74 73
40 142 76 154 80 12 4 38 20 58 36 20 16 46 32 58 36 12 4 36 17 53 30 17 13
35 24 41 24 6 0 23 10 39 23 15 12 42 31 60 42 104 64 297 201 415 295 38 30
87 69 110 85 126 93 488 443 587 569 79 98 170 209 199 241 153 168 188 208
213 246 16 24 43 62 59 84 58 77 121 167 159 228 9 16 29 45 45 64 15 20 27
41 27 48 0 7 12 28 28 48 34 45 67 99 145 239 56 99 234 462 246 499 6 20 20
53 31 74 11 22 20 44 20 51 0 6 12 38 26 70 104 234 240 692 285 959 6 33 19
101 30 150 18 87 25 132 50 335 6 52 15 118 20 145 4 28 13 181 19 340 14 326
2 713 -25 870 -9 49 -20 135 -25 190 -9 98 -28 194 -97 510 -58 267 -197 718
-256 832 -10 18 -17 38 -17 45 0 8 -13 40 -30 73 -16 33 -30 67 -30 75 0 8
-11 37 -24 65 -13 27 -43 91 -66 140 -53 112 -104 213 -152 302 -21 37 -46 87
-57 109 -11 23 -24 45 -30 49 -6 3 -23 27 -37 53 -56 104 -89 158 -144 237
-12 17 -31 45 -43 64 -47 74 -103 153 -155 222 -15 20 -42 58 -61 85 -35 50
-143 181 -206 250 -20 21 -66 74 -103 118 -161 192 -310 341 -502 504 -253
215 -406 339 -485 392 -12 8 -33 23 -46 33 -42 31 -93 66 -124 83 -16 9 -42
26 -57 38 -14 12 -49 35 -77 51 -29 17 -75 45 -104 63 -28 17 -56 32 -63 32
-6 0 -28 13 -48 29 -20 16 -50 33 -66 36 -17 4 -33 11 -36 17 -4 5 -34 23 -68
39 -33 16 -68 33 -76 38 -8 5 -44 22 -80 39 -36 16 -94 43 -130 60 -36 17 -78
34 -95 38 -16 4 -43 14 -60 22 -16 9 -66 28 -110 44 -44 16 -116 43 -160 59
-44 17 -114 40 -156 53 -41 12 -80 25 -85 29 -12 7 -339 90 -534 136 -118 27
-227 48 -430 81 -78 13 -421 40 -509 40 -87 0 -133 22 -150 72 -8 22 -11 668
-11 2219 0 2176 0 2189 -20 2209 -13 13 -33 20 -57 20 -21 0 -74 3 -118 6 -44
4 -82 4 -85 1z m-1815 -408 c19 -17 35 -40 35 -50 0 -19 -9 -23 -89 -34 -24
-3 -57 -15 -73 -27 -21 -14 -54 -23 -108 -29 -49 -5 -98 -17 -132 -33 -30 -14
-72 -26 -94 -26 -21 -1 -57 -8 -79 -16 -66 -25 -138 -44 -170 -44 -17 0 -49
-9 -70 -20 -22 -12 -71 -28 -110 -37 -38 -8 -86 -23 -105 -33 -20 -10 -58 -21
-85 -25 -28 -4 -70 -18 -95 -30 -25 -12 -61 -26 -80 -29 -58 -11 -189 -78
-196 -100 -18 -57 113 -79 266 -46 52 11 131 27 175 34 44 8 93 19 108 25 15
6 80 20 144 31 63 12 127 27 142 34 14 8 62 19 106 26 44 7 100 20 126 30 26
10 75 22 110 26 35 3 92 17 126 31 34 13 95 28 135 32 41 5 88 16 106 25 18 9
74 23 124 31 51 7 113 22 138 33 25 11 72 23 105 27 33 4 77 16 99 27 24 12
82 25 155 33 64 8 132 21 152 29 20 8 98 22 175 30 76 8 159 22 184 30 26 9
128 22 240 30 227 17 254 12 265 -46 3 -18 4 -923 3 -2010 l-3 -1977 -21 -22
c-25 -24 -166 -51 -389 -74 -77 -8 -181 -23 -230 -33 -50 -11 -119 -23 -155
-27 -125 -12 -617 -129 -789 -186 -324 -108 -555 -193 -616 -228 -17 -10 -43
-21 -59 -25 -16 -4 -45 -18 -65 -32 -19 -13 -40 -24 -46 -24 -10 0 -113 -48
-165 -76 -14 -7 -52 -27 -85 -44 -33 -17 -82 -44 -110 -60 -27 -16 -73 -40
-102 -54 -28 -14 -54 -30 -58 -36 -4 -7 -26 -20 -49 -31 -22 -11 -57 -30 -76
-44 -19 -13 -48 -34 -65 -45 -49 -33 -97 -68 -139 -97 -21 -15 -56 -39 -76
-53 -80 -53 -99 -68 -232 -180 -75 -63 -163 -135 -194 -160 -131 -103 -658
-648 -716 -740 -8 -14 -25 -37 -36 -50 -71 -84 -131 -161 -157 -199 -38 -56
-67 -95 -110 -151 -19 -25 -43 -63 -54 -85 -10 -22 -26 -47 -35 -54 -10 -8
-27 -32 -39 -54 -12 -21 -36 -64 -54 -96 -17 -31 -39 -72 -48 -91 -9 -19 -25
-44 -35 -55 -10 -11 -21 -31 -25 -45 -4 -14 -20 -45 -35 -70 -15 -25 -31 -56
-35 -70 -4 -14 -15 -36 -25 -50 -10 -14 -21 -36 -25 -49 -4 -13 -31 -70 -60
-127 -29 -56 -58 -119 -65 -140 -7 -20 -21 -52 -32 -69 -10 -18 -25 -54 -32
-81 -8 -27 -31 -94 -51 -149 -35 -95 -79 -220 -140 -400 -15 -44 -37 -125 -50
-180 -13 -55 -31 -119 -39 -143 -9 -24 -18 -66 -22 -95 -4 -29 -18 -88 -31
-132 -13 -44 -28 -118 -32 -165 -5 -47 -19 -130 -30 -185 -11 -55 -25 -163
-31 -240 -6 -77 -17 -221 -26 -320 -17 -189 -15 -506 5 -705 6 -52 15 -161 20
-241 6 -80 20 -190 31 -244 11 -54 25 -139 30 -189 6 -50 19 -118 30 -151 11
-33 24 -90 30 -126 5 -36 18 -90 29 -121 10 -30 24 -82 31 -114 11 -58 52
-193 92 -304 10 -30 27 -82 38 -115 10 -33 29 -87 42 -120 14 -33 37 -94 53
-135 15 -41 38 -97 51 -125 12 -27 41 -93 64 -145 42 -96 48 -109 68 -145 6
-11 18 -36 27 -55 8 -19 33 -66 55 -105 21 -38 48 -88 59 -110 12 -22 39 -69
60 -105 22 -36 52 -85 66 -110 14 -25 39 -65 55 -90 17 -25 38 -58 48 -74 35
-57 195 -289 245 -353 78 -102 240 -298 276 -334 14 -15 53 -58 86 -95 103
-118 304 -332 338 -360 18 -14 61 -54 97 -88 112 -104 307 -274 380 -331 57
-44 176 -139 226 -179 18 -14 35 -26 39 -26 4 0 24 -13 44 -29 20 -15 51 -37
69 -47 19 -11 54 -30 78 -44 323 -185 684 -366 870 -434 72 -27 188 -77 198
-85 6 -5 38 -17 71 -26 33 -10 76 -25 95 -35 19 -9 60 -23 90 -30 30 -7 68
-19 83 -27 16 -8 66 -21 110 -30 45 -8 114 -26 154 -39 39 -13 89 -24 110 -24
21 0 79 -11 128 -25 62 -18 134 -29 235 -35 80 -6 165 -15 190 -20 25 -6 159
-14 297 -18 245 -7 253 -8 275 -30 l23 -23 1 -702 c1 -1376 -12 -2989 -25
-3029 -21 -66 -31 -68 -261 -68 -211 1 -322 8 -495 34 -55 8 -170 20 -255 26
-85 6 -186 20 -225 30 -38 10 -126 24 -195 30 -69 7 -145 20 -170 30 -25 10
-91 23 -147 29 -56 6 -124 20 -152 30 -27 11 -92 24 -144 30 -53 5 -114 18
-138 29 -24 11 -69 23 -99 27 -30 4 -86 17 -125 30 -38 13 -99 29 -135 35 -35
7 -77 19 -94 27 -16 8 -65 24 -108 34 -43 10 -92 25 -107 34 -16 8 -59 19 -97
25 -38 6 -79 18 -91 26 -13 8 -53 21 -89 30 -37 8 -79 21 -94 29 -14 7 -55 21
-90 30 -36 9 -70 21 -77 27 -13 10 -128 57 -223 89 -30 11 -80 30 -110 44 -30
13 -89 38 -130 56 -41 17 -102 43 -135 59 -33 15 -103 47 -155 69 -52 23 -103
46 -112 52 -41 21 -57 29 -133 64 -44 20 -91 42 -105 50 -14 8 -52 28 -85 45
-33 17 -71 37 -85 45 -14 9 -36 20 -50 26 -14 5 -50 25 -80 44 -30 19 -73 43
-95 53 -22 11 -46 26 -53 35 -7 8 -27 21 -45 28 -18 6 -45 22 -62 34 -16 12
-43 29 -60 37 -74 39 -145 80 -150 88 -3 5 -25 18 -48 30 -23 11 -62 35 -87
55 -25 19 -65 46 -90 60 -25 14 -65 41 -90 60 -46 35 -103 77 -147 106 -25 17
-74 56 -128 102 -18 15 -37 27 -43 27 -6 0 -39 24 -73 53 -34 28 -74 61 -89
72 -81 59 -151 115 -224 179 -44 39 -126 109 -181 156 -55 46 -122 105 -150
130 -27 26 -84 77 -125 116 -363 334 -895 908 -1043 1124 -9 14 -35 48 -57 75
-22 28 -61 79 -87 115 -26 36 -66 88 -89 115 -38 47 -70 91 -119 169 -11 18
-29 41 -40 53 -11 11 -33 44 -50 73 -16 29 -41 66 -55 84 -37 45 -82 115 -101
157 -9 20 -22 40 -28 43 -6 4 -24 30 -39 58 -52 95 -60 109 -75 126 -8 9 -22
35 -31 57 -10 22 -25 49 -35 60 -10 11 -24 37 -30 57 -7 21 -17 40 -22 44 -5
3 -22 31 -37 62 -15 31 -60 118 -98 192 -39 74 -103 207 -143 295 -40 88 -81
178 -91 200 -35 74 -90 202 -90 211 0 5 -11 31 -24 59 -31 63 -72 163 -97 235
-10 30 -25 66 -33 80 -8 14 -21 48 -29 75 -8 28 -24 70 -35 95 -11 25 -23 65
-27 90 -4 25 -16 62 -26 82 -11 21 -26 68 -34 105 -8 38 -23 85 -33 105 -11
21 -23 68 -27 105 -4 37 -16 85 -27 106 -10 21 -25 74 -33 117 -8 43 -21 92
-30 109 -8 17 -20 68 -26 113 -6 46 -20 103 -31 128 -10 25 -24 85 -29 134 -6
49 -19 111 -30 138 -12 30 -23 94 -29 162 -5 63 -18 140 -29 173 -13 39 -24
111 -31 196 -6 82 -18 159 -31 198 -16 52 -22 107 -29 294 -5 127 -16 273 -25
325 -27 170 -38 499 -31 985 3 253 10 487 15 520 26 166 32 236 41 425 7 153
14 223 29 277 11 39 25 129 31 200 6 74 18 155 30 193 12 36 25 116 30 181 6
79 15 133 29 165 11 27 25 88 30 137 6 48 19 108 31 133 11 26 24 84 30 130 5
46 18 104 28 128 11 24 23 68 27 97 4 30 18 79 30 109 13 30 26 82 30 115 4
33 18 85 30 115 13 30 29 79 34 108 6 29 19 69 30 90 10 20 22 57 26 82 4 25
18 70 31 100 12 30 28 75 35 100 6 25 18 58 26 74 8 15 21 54 29 85 8 31 21
65 29 77 7 11 20 43 28 71 8 28 22 64 31 81 9 17 27 59 40 94 13 35 37 97 54
138 17 41 39 98 50 125 17 43 52 113 192 382 14 27 35 65 47 85 13 19 23 42
23 50 0 9 10 28 23 44 12 15 33 51 47 79 110 216 226 430 259 475 10 14 38 59
62 100 24 41 53 88 66 103 13 16 23 33 23 38 0 5 19 37 43 70 23 33 48 70 56
82 96 147 128 196 141 219 8 14 38 56 65 92 28 37 68 90 90 120 22 29 74 94
115 144 41 49 98 123 127 163 28 41 93 122 145 181 311 357 368 419 431 478
39 36 134 127 211 204 129 126 205 194 388 343 34 28 77 64 93 80 71 68 175
154 241 199 39 27 99 70 133 97 34 26 65 47 70 47 5 0 33 21 63 46 29 25 98
76 152 113 55 36 106 71 114 76 79 54 208 135 215 135 5 0 23 10 40 23 18 12
52 32 77 44 25 13 63 34 85 48 22 14 65 38 95 54 121 62 174 91 189 105 9 7
61 36 116 63 55 27 132 65 170 85 148 76 374 181 595 278 36 15 85 37 110 48
47 21 115 49 203 82 28 11 75 31 102 45 28 13 88 41 135 60 47 20 108 47 135
59 85 40 157 68 240 91 44 13 100 30 125 39 93 32 247 75 290 81 25 4 64 15
87 25 23 10 79 26 125 35 46 10 94 23 108 30 14 7 61 21 105 30 43 9 82 18 86
20 18 11 202 55 232 55 17 0 52 7 77 14 65 21 75 19 115 -15z m8922 -2924 c3
-9 20 -22 38 -29 18 -8 42 -22 52 -30 10 -9 79 -67 153 -129 74 -62 197 -171
275 -243 77 -72 182 -167 234 -210 194 -163 403 -363 731 -700 257 -263 306
-330 264 -361 -32 -23 -61 -7 -189 104 -119 102 -150 125 -245 177 -59 32
-308 278 -492 486 -81 91 -186 204 -235 251 -129 127 -324 329 -358 374 -32
41 -67 81 -159 180 -31 33 -56 66 -56 73 0 7 -9 20 -20 29 -21 19 -27 43 -10
43 6 0 13 -7 17 -15z m556 -186 c78 -39 167 -90 197 -113 30 -22 78 -54 107
-71 128 -74 232 -145 293 -200 36 -33 84 -72 106 -88 140 -98 271 -183 333
-216 14 -7 42 -24 61 -36 19 -13 46 -26 60 -30 14 -4 34 -16 45 -27 11 -10 37
-33 58 -50 44 -36 92 -112 83 -133 -9 -24 -57 -17 -105 15 -24 17 -48 30 -53
30 -5 0 -26 11 -46 25 -20 14 -44 25 -53 25 -8 0 -33 13 -55 30 -21 16 -42 30
-47 30 -4 0 -29 15 -56 33 -27 17 -64 41 -82 52 -18 11 -47 29 -65 40 -17 11
-45 29 -63 40 -19 11 -65 46 -103 78 -38 31 -76 57 -83 57 -8 0 -62 41 -120
90 -58 50 -110 90 -115 90 -4 0 -58 42 -119 93 -135 113 -157 130 -199 151
-18 10 -60 44 -93 77 -101 103 -80 104 114 8z m-7799 -1659 c14 -5 31 -19 38
-32 18 -32 13 -11000 -5 -11037 -7 -13 -24 -33 -39 -44 -26 -19 -29 -19 -85
-4 -32 9 -134 21 -226 27 -128 9 -184 17 -235 35 -37 13 -105 26 -152 30 -50
4 -107 16 -140 30 -30 12 -90 25 -132 29 -47 4 -98 16 -130 30 -29 14 -78 27
-108 31 -30 4 -71 16 -91 26 -20 10 -67 23 -104 29 -38 6 -80 19 -94 29 -14
11 -46 24 -71 31 -25 7 -63 22 -85 35 -22 12 -62 25 -88 29 -27 3 -60 15 -74
26 -14 11 -41 22 -62 26 -20 4 -60 20 -90 35 -30 16 -66 29 -80 29 -14 0 -46
14 -70 30 -24 17 -50 30 -57 30 -7 0 -26 11 -42 25 -16 13 -47 28 -70 33 -22
5 -53 19 -68 31 -15 11 -44 25 -64 31 -25 7 -50 25 -74 53 -20 23 -45 51 -56
63 -11 11 -26 37 -34 56 -9 21 -35 50 -64 70 -64 47 -597 563 -681 661 -50 59
-57 107 -15 107 24 0 78 -37 133 -90 52 -52 149 -136 195 -170 26 -19 75 -58
109 -86 109 -89 273 -205 336 -238 20 -10 49 -29 64 -42 16 -13 37 -24 47 -24
10 0 31 -10 47 -23 15 -12 62 -40 103 -61 41 -21 91 -49 110 -62 19 -13 41
-24 50 -24 8 0 35 -14 60 -30 25 -16 52 -30 60 -30 8 0 40 -13 70 -30 30 -16
62 -29 71 -30 10 0 41 -13 71 -28 30 -16 67 -32 83 -36 16 -4 41 -16 56 -27
15 -10 42 -22 61 -25 18 -4 51 -17 73 -29 22 -13 60 -28 85 -34 25 -7 65 -20
90 -30 25 -11 81 -27 125 -36 45 -10 89 -26 102 -37 23 -21 54 -21 61 0 2 7
-11 19 -31 27 -19 8 -37 21 -41 30 -3 8 -27 25 -53 36 -27 11 -55 27 -63 34
-9 8 -36 18 -61 24 -25 6 -85 31 -133 56 -48 26 -107 52 -131 59 -24 8 -56 23
-72 33 -15 11 -39 24 -53 28 -14 4 -36 15 -50 25 -14 9 -41 22 -61 29 -20 6
-51 23 -69 36 -19 14 -38 25 -43 25 -5 0 -22 11 -38 25 -16 13 -45 28 -64 34
-18 5 -49 20 -67 34 -18 14 -44 28 -58 32 -14 4 -37 18 -52 31 -15 12 -42 25
-60 29 -18 4 -40 13 -48 20 -22 19 -112 71 -218 126 -50 27 -102 57 -114 69
-12 11 -31 23 -42 26 -12 4 -50 28 -86 53 -36 26 -92 65 -125 85 -33 21 -76
53 -96 70 -20 17 -76 63 -124 101 -285 229 -387 322 -504 460 -65 76 -89 109
-208 291 -29 43 -76 112 -105 153 -29 41 -62 89 -73 107 -11 18 -41 64 -67
102 -27 38 -48 74 -48 80 0 6 -10 23 -23 39 -42 50 -156 268 -259 493 -16 36
-41 86 -54 111 -13 26 -24 54 -24 62 0 8 -13 39 -30 70 -17 31 -30 65 -30 75
0 10 -11 41 -25 68 -14 27 -29 72 -35 101 -5 29 -19 71 -31 94 -11 23 -25 70
-30 105 -5 34 -18 78 -29 97 -12 21 -24 65 -29 109 -5 42 -18 92 -31 118 -14
27 -26 75 -31 120 -4 41 -17 97 -29 124 -16 35 -24 80 -30 165 -5 76 -16 137
-30 176 -18 51 -23 95 -31 300 -11 301 -11 549 0 875 8 214 13 265 31 320 12
40 24 113 29 190 6 87 16 141 31 179 11 30 25 93 29 140 5 56 16 101 30 130
14 26 26 75 31 125 6 53 18 98 35 130 14 27 25 63 25 80 0 17 14 58 30 91 16
33 30 72 30 86 0 14 11 47 24 72 14 25 28 63 32 84 4 21 20 62 35 92 16 30 29
61 29 70 0 9 11 36 24 61 13 25 29 63 36 85 7 22 21 51 31 64 11 13 19 29 19
35 0 11 59 141 85 186 8 14 21 41 30 60 8 19 23 49 32 65 9 17 26 48 38 70 12
22 33 56 46 76 13 20 35 55 49 78 14 24 40 63 59 88 18 26 49 71 69 102 19 31
58 84 86 117 69 83 108 133 127 164 76 120 531 590 673 695 37 28 98 75 135
105 119 96 314 228 443 299 20 12 40 25 43 31 4 6 27 22 53 36 26 14 72 40
102 59 30 19 71 41 90 49 19 9 42 20 50 26 8 6 35 20 60 33 25 12 61 32 80 43
19 12 47 24 62 28 15 3 44 17 64 31 20 14 45 25 54 25 9 0 33 11 53 25 20 13
56 29 79 35 24 7 62 23 85 36 23 13 50 24 61 24 10 0 43 13 73 29 30 15 74 31
98 35 24 4 62 17 85 30 22 13 66 27 96 30 30 4 70 16 89 27 21 13 67 24 120
30 54 6 99 17 121 30 23 14 64 24 129 30 52 5 119 18 149 29 36 14 98 23 190
30 76 5 166 17 202 26 58 14 143 29 192 33 9 0 28 -3 42 -9z m582 -15 c60 -8
115 -18 123 -20 8 -3 87 -10 175 -15 117 -6 177 -14 218 -29 32 -11 97 -24
145 -30 49 -5 108 -19 133 -30 25 -11 77 -24 116 -29 39 -6 88 -19 110 -30 22
-11 65 -25 95 -30 30 -6 77 -22 104 -36 26 -14 57 -26 69 -26 12 0 48 -14 81
-30 33 -17 66 -30 74 -30 8 0 33 -11 55 -24 23 -13 52 -27 66 -31 24 -6 81
-32 213 -95 34 -17 66 -30 70 -30 4 0 65 -32 135 -71 237 -132 228 -127 360
-215 41 -27 91 -60 111 -74 105 -69 130 -87 184 -129 460 -360 926 -845 1183
-1231 27 -41 64 -94 81 -118 82 -109 304 -509 398 -717 12 -27 36 -79 53 -115
45 -95 82 -187 102 -256 10 -33 25 -74 33 -91 9 -16 23 -60 31 -97 9 -37 23
-80 31 -96 8 -16 22 -58 30 -92 8 -35 23 -90 33 -123 40 -121 66 -222 83 -320
10 -55 25 -120 34 -145 10 -27 20 -103 26 -190 6 -87 19 -179 32 -230 21 -83
22 -101 22 -630 0 -540 0 -546 -23 -630 -16 -58 -26 -130 -32 -226 -6 -107
-12 -151 -28 -187 -11 -25 -25 -87 -31 -137 -7 -51 -20 -107 -32 -129 -11 -21
-24 -73 -28 -114 -5 -45 -17 -89 -29 -109 -11 -18 -25 -57 -31 -87 -6 -30 -20
-68 -30 -85 -11 -17 -22 -53 -26 -81 -4 -27 -17 -71 -30 -96 -13 -25 -27 -63
-31 -85 -4 -21 -17 -59 -29 -84 -12 -25 -27 -67 -34 -94 -7 -27 -20 -61 -30
-75 -10 -14 -22 -37 -26 -51 -4 -14 -17 -43 -30 -65 -12 -22 -25 -53 -29 -70
-4 -16 -21 -50 -37 -74 -16 -25 -29 -50 -29 -56 0 -7 -8 -23 -18 -36 -10 -13
-26 -44 -36 -69 -10 -25 -26 -54 -35 -65 -10 -11 -35 -51 -56 -90 -21 -38 -52
-91 -69 -117 -17 -25 -44 -69 -61 -98 -16 -28 -41 -66 -55 -85 -14 -18 -43
-59 -65 -90 -135 -191 -358 -457 -530 -630 -171 -172 -352 -342 -422 -394 -28
-21 -93 -74 -144 -117 -97 -82 -133 -110 -185 -144 -34 -22 -99 -98 -91 -107
7 -6 103 38 151 70 18 12 47 30 62 39 16 10 48 30 71 45 46 31 128 86 295 197
249 167 329 217 377 236 76 30 84 17 42 -68 -59 -122 -137 -222 -271 -348 -41
-39 -86 -82 -100 -96 -14 -14 -36 -31 -50 -38 -14 -7 -53 -37 -88 -67 -35 -29
-67 -53 -71 -53 -5 0 -25 -13 -46 -30 -21 -16 -45 -30 -55 -30 -9 0 -29 -14
-45 -30 -16 -17 -37 -30 -46 -30 -10 0 -30 -11 -46 -24 -15 -13 -42 -30 -58
-39 -17 -8 -39 -24 -49 -36 -11 -12 -27 -21 -36 -21 -10 0 -34 -13 -55 -30
-21 -16 -43 -30 -50 -30 -6 0 -22 -11 -35 -25 -13 -14 -38 -27 -56 -31 -18 -3
-40 -14 -49 -24 -9 -10 -41 -28 -71 -40 -30 -12 -54 -26 -54 -30 0 -9 -46 -30
-68 -30 -9 0 -37 -14 -61 -30 -24 -17 -52 -30 -61 -30 -10 0 -34 -11 -55 -26
-21 -14 -57 -29 -80 -33 -24 -4 -56 -17 -72 -29 -17 -12 -52 -26 -78 -32 -26
-6 -60 -20 -76 -31 -16 -11 -56 -23 -96 -28 -37 -5 -84 -18 -103 -29 -19 -12
-63 -25 -96 -31 -34 -5 -81 -19 -104 -31 -28 -14 -73 -24 -138 -29 -53 -5
-124 -18 -157 -30 -33 -12 -98 -24 -145 -27 -47 -3 -125 -16 -175 -30 -67 -17
-138 -26 -275 -33 -204 -11 -232 -15 -303 -39 -43 -15 -51 -15 -75 -1 -15 8
-35 30 -44 49 -17 33 -18 319 -18 5538 0 5489 0 5502 20 5522 24 24 11 23 146
5z m7164 -12359 c0 -50 -607 -704 -944 -1018 -140 -129 -164 -148 -193 -148
-105 0 -14 115 392 495 148 139 478 453 659 628 59 56 86 70 86 43z m-3130
-2406 c12 -8 12 -10 -3 -16 -20 -7 -47 1 -47 16 0 12 30 13 50 0z m-5920 -590
c51 -15 127 -24 244 -30 93 -6 219 -19 280 -29 61 -11 204 -25 317 -30 198
-10 264 -21 256 -45 -10 -29 -83 -35 -362 -30 -288 6 -337 10 -440 38 -33 8
-114 20 -180 25 -85 6 -136 15 -175 31 -42 17 -84 24 -174 29 -97 5 -121 9
-130 23 -5 9 -7 20 -3 24 29 29 254 25 367 -6z"/>
<path d="M11370 24236 c-19 -7 -52 -21 -72 -30 -21 -9 -46 -16 -56 -16 -11 0
-43 -13 -73 -28 -30 -16 -69 -32 -86 -35 -18 -4 -66 -22 -106 -41 -40 -19
-116 -48 -168 -66 -52 -17 -105 -38 -117 -46 -13 -9 -47 -24 -75 -34 -83 -29
-180 -71 -207 -90 -14 -10 -36 -21 -50 -25 -14 -4 -111 -50 -217 -101 -105
-52 -194 -94 -198 -94 -4 0 -19 -8 -33 -19 -15 -10 -45 -24 -67 -31 -22 -7
-46 -17 -53 -23 -6 -5 -63 -35 -125 -67 -132 -67 -187 -97 -207 -115 -8 -8
-35 -23 -60 -35 -25 -11 -68 -35 -96 -53 -28 -17 -65 -41 -83 -52 -82 -50
-129 -80 -168 -106 -23 -16 -44 -29 -47 -29 -8 0 -96 -62 -171 -120 -31 -25
-67 -52 -79 -60 -42 -29 -102 -75 -168 -130 -37 -30 -85 -68 -108 -85 -73 -54
-379 -337 -479 -444 -19 -20 -86 -90 -150 -157 -138 -143 -160 -169 -177 -209
-7 -16 -36 -56 -66 -88 -76 -82 -96 -110 -104 -143 -4 -16 -18 -41 -33 -56
-14 -14 -39 -45 -56 -67 -16 -23 -45 -60 -62 -82 -18 -23 -33 -44 -33 -48 0
-5 -14 -23 -31 -42 -32 -36 -69 -80 -119 -140 -17 -20 -30 -41 -30 -47 0 -6
-17 -29 -37 -50 -21 -21 -46 -50 -56 -63 -44 -60 -68 -97 -83 -129 -9 -19 -27
-48 -40 -63 -13 -16 -24 -37 -24 -48 0 -32 28 -21 55 21 14 22 30 40 35 40 5
0 17 15 26 33 16 30 39 61 100 132 24 29 50 62 124 161 19 26 71 90 115 143
115 138 155 192 155 210 0 18 55 99 92 135 37 37 114 128 147 173 43 59 353
362 499 488 20 17 63 55 96 85 116 106 216 184 291 226 17 9 58 41 93 71 35
29 69 53 76 53 7 0 30 14 51 30 21 17 43 30 50 30 7 0 29 14 50 30 21 17 43
30 50 30 12 0 51 27 126 88 23 17 48 32 58 32 9 0 31 14 49 30 18 17 41 30 51
30 10 0 38 13 62 30 24 16 49 30 56 30 6 0 24 11 40 24 15 13 38 26 51 30 12
4 34 18 50 30 15 13 44 29 65 35 20 7 42 21 47 31 6 10 20 22 32 25 13 4 37
17 53 30 17 12 47 27 67 34 21 7 40 17 44 22 3 6 29 21 58 33 29 13 55 30 59
38 3 9 25 20 49 26 25 6 53 21 63 32 10 11 35 25 55 30 20 5 47 19 60 30 13
11 35 23 49 26 22 5 123 52 211 99 87 47 274 135 286 135 7 0 60 22 116 49
106 51 262 120 358 160 30 13 100 42 154 65 108 45 134 68 102 92 -24 17 -60
17 -106 0z"/>
<path d="M6854 20765 c-4 -14 -4 -29 0 -32 9 -10 36 18 36 38 0 28 -29 23 -36
-6z"/>
<path d="M6807 20683 c-4 -3 -7 -11 -7 -17 0 -6 5 -5 12 2 6 6 9 14 7 17 -3 3
-9 2 -12 -2z"/>
<path d="M12865 25186 c-22 -16 -14 -46 13 -46 24 0 74 38 67 51 -9 14 -59 11
-80 -5z"/>
<path d="M18580 24570 c0 -5 7 -10 16 -10 8 0 12 5 9 10 -3 6 -10 10 -16 10
-5 0 -9 -4 -9 -10z"/>
<path d="M24087 11664 c-4 -4 -7 -14 -7 -23 0 -11 3 -12 11 -4 6 6 10 16 7 23
-2 6 -7 8 -11 4z"/>
<path d="M24010 11514 c-13 -40 -8 -53 15 -34 16 13 21 70 6 70 -5 0 -15 -16
-21 -36z"/>
<path d="M23962 11435 c-11 -14 -23 -42 -27 -62 -3 -21 -17 -54 -30 -73 -13
-19 -29 -54 -35 -78 -6 -23 -22 -64 -35 -89 -14 -25 -25 -52 -25 -60 0 -7 -13
-39 -30 -70 -16 -31 -30 -64 -30 -74 0 -10 -11 -34 -24 -53 -13 -19 -26 -52
-29 -74 -4 -21 -16 -47 -27 -57 -11 -10 -25 -38 -31 -61 -6 -24 -22 -58 -35
-75 -13 -18 -24 -41 -24 -50 0 -10 -12 -31 -26 -48 -14 -17 -30 -48 -36 -68
-6 -21 -21 -51 -34 -66 -13 -16 -24 -40 -24 -53 0 -14 -11 -35 -25 -48 -14
-13 -30 -39 -37 -57 -6 -19 -22 -47 -35 -62 -12 -16 -23 -35 -23 -42 0 -7 -11
-26 -24 -42 -13 -15 -28 -45 -34 -66 -6 -20 -22 -51 -36 -68 -14 -17 -26 -39
-26 -50 0 -10 -12 -29 -26 -42 -14 -12 -32 -37 -40 -55 -7 -18 -20 -40 -29
-49 -9 -8 -19 -29 -22 -45 -3 -16 -16 -36 -29 -44 -13 -9 -28 -32 -35 -52 -6
-20 -22 -48 -34 -62 -13 -14 -26 -36 -30 -50 -4 -14 -18 -38 -31 -53 -13 -16
-24 -33 -24 -37 0 -5 -13 -23 -30 -40 -19 -19 -30 -41 -30 -59 0 -18 -11 -40
-30 -59 -19 -20 -30 -42 -30 -60 0 -17 -10 -38 -25 -52 -30 -28 -36 -84 -8
-78 10 2 22 19 28 41 6 20 20 44 33 53 12 8 29 31 37 51 8 19 26 48 40 65 14
16 25 35 25 42 0 7 10 21 21 32 12 10 28 33 36 49 8 17 24 44 36 62 49 71 75
120 82 150 3 17 13 37 21 44 9 7 26 34 40 60 13 26 28 50 33 53 12 8 76 124
86 156 4 14 18 38 31 53 13 16 24 37 24 47 0 11 13 34 29 52 15 18 34 49 40
70 7 20 19 39 27 42 8 3 24 25 35 48 11 24 26 54 34 68 7 14 31 61 53 105 21
44 48 96 60 115 12 19 22 45 22 57 0 12 11 35 25 51 13 16 33 50 44 75 11 24
24 48 29 51 6 4 16 32 22 64 7 31 22 71 34 87 12 17 27 48 34 71 6 22 21 49
31 59 12 10 23 37 27 64 4 25 17 58 29 72 13 17 24 47 28 80 4 34 14 60 29 76
16 17 23 39 26 83 5 66 -5 75 -36 35z"/>
<path d="M20043 6103 c-18 -6 -16 -23 1 -23 17 0 30 16 19 23 -5 2 -14 2 -20
0z"/>
<path d="M18650 5784 c0 -10 7 -14 22 -12 32 5 35 28 4 28 -17 0 -26 -5 -26
-16z"/>
</g>
</svg>
